<?xml version="1.0" standalone="no"?><!DOCTYPE svg PUBLIC "-//W3C//DTD SVG 1.1//EN" "http://www.w3.org/Graphics/SVG/1.1/DTD/svg11.dtd"><svg t="1587947226114" class="icon" viewBox="0 0 1026 1024" version="1.1" xmlns="http://www.w3.org/2000/svg" p-id="2562" xmlns:xlink="http://www.w3.org/1999/xlink" width="200.390625" height="200"><defs><style type="text/css"></style></defs><path d="M 913.449 563.249 h -800.2 c -27.4225 0 -49.4505 -22.028 -49.4505 -49.4505 v -4.04596 c 0 -27.4225 22.028 -49.4505 49.4505 -49.4505 h 800.2 c 27.4225 0 49.4505 22.028 49.4505 49.4505 v 4.04596 c 0 27.4225 -22.028 49.4505 -49.4505 49.4505 Z" p-id="2563"></path><path d="M 565.047 111.45 v 800.2 c 0 27.4225 -22.028 49.4505 -49.4505 49.4505 h -4.04596 c -27.4225 0 -49.4505 -22.028 -49.4505 -49.4505 v -800.2 c 0 -27.4225 22.028 -49.4505 49.4505 -49.4505 h 4.04596 c 27.4225 0 49.4505 22.4775 49.4505 49.4505 Z" p-id="2564"></path></svg>