<?xml version="1.0" standalone="no"?><!DOCTYPE svg PUBLIC "-//W3C//DTD SVG 1.1//EN" "http://www.w3.org/Graphics/SVG/1.1/DTD/svg11.dtd"><svg t="1585888973951" class="icon" viewBox="0 0 1024 1024" version="1.1" xmlns="http://www.w3.org/2000/svg" p-id="3962" xmlns:xlink="http://www.w3.org/1999/xlink" width="200" height="200"><defs><style type="text/css"></style></defs><path d="M274.432 569.856v169.472a29.696 29.696 0 0 0 59.904 0v-169.472a29.696 29.696 0 0 0-59.904 0zM236.544 406.016L460.8 249.344l133.12 145.408a29.184 29.184 0 0 0 7.168 5.12h4.096L614.4 409.6h10.24a28.672 28.672 0 0 0 8.192-3.584l235.52-164.352a29.696 29.696 0 0 0-34.304-51.2l-217.6 153.6-128.512-153.6a29.696 29.696 0 0 0-38.4-4.096 28.672 28.672 0 0 0-7.68 3.072L204.8 358.4a29.696 29.696 0 0 0 34.304 51.2zM438.272 454.656v284.672a29.696 29.696 0 1 0 59.904 0V454.656a29.696 29.696 0 0 0-59.904 0zM764.416 454.656v284.672a29.696 29.696 0 1 0 59.904 0V454.656a29.696 29.696 0 0 0-59.904 0zM602.112 569.856v169.472a29.696 29.696 0 0 0 59.904 0v-169.472a29.696 29.696 0 0 0-59.904 0z" fill="#666666" p-id="3963"></path><path d="M930.304 841.216H137.728V208.896a29.696 29.696 0 1 0-59.904 0V870.4a30.208 30.208 0 0 0 29.696 29.696h822.784a29.696 29.696 0 0 0 0-59.904z" fill="#666666" p-id="3964"></path></svg>