<?xml version="1.0" standalone="no"?><!DOCTYPE svg PUBLIC "-//W3C//DTD SVG 1.1//EN" "http://www.w3.org/Graphics/SVG/1.1/DTD/svg11.dtd"><svg t="1585888941563" class="icon" viewBox="0 0 1024 1024" version="1.1" xmlns="http://www.w3.org/2000/svg" p-id="2971" xmlns:xlink="http://www.w3.org/1999/xlink" width="200" height="200"><defs><style type="text/css"></style></defs><path d="M441.185676 759.832482l-232.587266 0c-3.38919-10.102079-5.067412-24.432459-5.067412-42.974767 0-7.583722 0.419556-15.168468 1.258667-22.753213 0.839111-7.584746 2.113127-14.748912 3.807722-21.494547l232.587266 0L441.184653 561.358151l-232.587266 0c-3.38919-10.102079-5.067412-24.431435-5.067412-42.973744 0-7.584746 0.419556-15.169491 1.258667-22.754237 0.839111-7.583722 2.113127-14.748912 3.807722-21.494547l182.028776 0L158.024571 64.555272c10.94119-1.678222 22.946618-2.936889 36.018332-3.776 13.07069-0.839111 25.496697-1.27504 37.308721-1.27504 11.780301 0 23.99653 0.435928 36.647665 1.27504 12.635785 0.839111 24.01188 2.097778 34.130332 3.776L509.446339 446.332395 712.986035 64.555272c10.94119-1.678222 22.107507-2.936889 33.485649-3.776 11.377118-0.839111 22.964014-1.27504 34.776038-1.27504 11.780301 0 23.575952 0.435928 35.388998 1.27504 11.796674 0.839111 22.753213 2.097778 32.871665 3.776L620.697119 474.136647l192.147228 0c2.517333 11.812023 3.792373 25.286919 3.792373 40.456411 0 18.542308-1.27504 34.130332-3.792373 46.766117L570.13863 561.359174l0 111.25078 242.705718 0c2.517333 11.813047 3.792373 25.286919 3.792373 40.455387 0 18.542308-1.27504 34.131355-3.792373 46.76714L570.13863 759.832482l0 198.472284c-10.118452 1.678222-20.656459 2.953262-31.614022 3.791349-10.956539 0.839111-21.914102 1.258667-32.870642 1.258667-10.957563 0-21.915126-0.419556-32.872688-1.258667-10.957563-0.838088-21.494547-2.113127-31.596625-3.791349L441.184653 759.832482z" p-id="2972"></path></svg>
