<?xml version="1.0" standalone="no"?><!DOCTYPE svg PUBLIC "-//W3C//DTD SVG 1.1//EN" "http://www.w3.org/Graphics/SVG/1.1/DTD/svg11.dtd"><svg t="1588537417282" class="icon" viewBox="0 0 1024 1024" version="1.1" xmlns="http://www.w3.org/2000/svg" p-id="6613" xmlns:xlink="http://www.w3.org/1999/xlink" width="200" height="200"><defs><style type="text/css"></style></defs><path d="M215.90599982 1024.52670657a142.53123651 142.53123651 0 0 1-142.33598821-142.33598823L73.57001161 141.80928166A142.53123651 142.53123651 0 0 1 215.90599982-0.52670657l592.2856245 0a142.53123651 142.53123651 0 0 1 142.33598823 142.33598823l0 740.28381256a142.53123651 142.53123651 0 0 1-142.33598823 142.33598821z m0-962.37871874a79.85654209 79.85654209 0 0 0-79.75891797 79.75891795l0 740.28381256a79.85654209 79.85654209 0 0 0 79.75891797 79.75891795l592.2856245 0a79.85654209 79.85654209 0 0 0 79.75891797-79.75891795L887.95054229 141.80928166a79.85654209 79.85654209 0 0 0-79.75891797-79.75891795z" fill="#515151" p-id="6614"></path><path d="M277.70207699 543.33734719a31.33734719 31.33734719 0 1 1 0-62.57707024l468.59584602 0a31.33734719 31.33734719 0 1 1 0 62.57707024zM277.70207699 691.33553522a31.33734719 31.33734719 0 1 1 0-62.18657373l319.71904077 0a31.33734719 31.33734719 0 1 1 0 62.67469441zM277.70207699 394.85103851a31.33734719 31.33734719 0 1 1 0-62.67469441l468.59584602 0a31.33734719 31.33734719 0 1 1 0 62.67469441z" fill="#515151" p-id="6615"></path></svg>