<?xml version="1.0" standalone="no"?><!DOCTYPE svg PUBLIC "-//W3C//DTD SVG 1.1//EN" "http://www.w3.org/Graphics/SVG/1.1/DTD/svg11.dtd"><svg t="1588537410058" class="icon" viewBox="0 0 1024 1024" version="1.1" xmlns="http://www.w3.org/2000/svg" p-id="6491" xmlns:xlink="http://www.w3.org/1999/xlink" width="200" height="200"><defs><style type="text/css"></style></defs><path d="M925.354667 188.458667a132.010667 132.010667 0 0 0-130.645334-110.677334H229.290667a132.010667 132.010667 0 0 0-130.645334 110.634667L59.733333 423.125333a131.84 131.84 0 0 0 52.565334 104.874667v285.696a132.608 132.608 0 0 0 132.437333 132.48h534.4a132.608 132.608 0 0 0 132.437333-132.48v-286.037333a135.68 135.68 0 0 0 52.266667-108.757334l-38.485333-230.442666z m-332.074667 706.56h-162.602667v-162.56h162.602667v162.56z m267.221333-81.28c0 44.8-36.437333 81.28-81.28 81.28h-134.741333v-188.16a25.6 25.6 0 0 0-25.6-25.6h-213.76a25.6 25.6 0 0 0-25.6 25.6v188.16H244.778667a81.322667 81.322667 0 0 1-81.28-81.28v-261.589334c9.216 2.048 18.688 3.285333 28.501333 3.285334 43.733333 0 82.602667-21.333333 106.666667-54.144a132.096 132.096 0 0 0 213.333333 0 132.096 132.096 0 0 0 213.333333 0 132.096 132.096 0 0 0 106.666667 54.144c9.813333 0 19.285333-1.237333 28.501333-3.285334v261.589334z m16-322.944c-0.469333 0.170667-0.853333 0.469333-1.28 0.682666-12.544 7.936-27.306667 12.714667-43.178666 12.714667-44.714667 0-81.066667-36.352-81.066667-81.066667a25.6 25.6 0 1 0-51.2 0c0 44.714667-36.394667 81.066667-81.066667 81.066667s-81.066667-36.352-81.066666-81.066667a25.6 25.6 0 1 0-51.2 0c0 44.714667-36.394667 81.066667-81.066667 81.066667s-81.066667-36.352-81.066667-81.066667a25.6 25.6 0 1 0-51.2 0c0 44.714667-36.394667 81.066667-81.066666 81.066667-15.317333 0-29.525333-4.522667-41.770667-11.733333-1.152-0.64-2.176-1.322667-3.413333-1.792-21.674667-14.208-36.053333-37.930667-36.266667-63.274667l38.528-230.485333a80.938667 80.938667 0 0 1 80.170667-67.882667h565.418666c39.936 0 73.642667 28.544 80.170667 67.882667l38.186667 226.218666c0 28.288-14.592 53.162667-36.565334 67.669334z" fill="" p-id="6492"></path></svg>