<?xml version="1.0" standalone="no"?><!DOCTYPE svg PUBLIC "-//W3C//DTD SVG 1.1//EN" "http://www.w3.org/Graphics/SVG/1.1/DTD/svg11.dtd"><svg t="1585888917828" class="icon" viewBox="0 0 1024 1024" version="1.1" xmlns="http://www.w3.org/2000/svg" p-id="2239" xmlns:xlink="http://www.w3.org/1999/xlink" width="200" height="200"><defs><style type="text/css"></style></defs><path d="M979.382857 401.554286l-26.331428-284.525715c-7.314286-21.942857-24.137143-38.765714-46.08-46.08L622.445714 44.617143a73.874286 73.874286 0 0 0-74.605714 17.554286L62.171429 547.84a72.850286 72.850286 0 0 0 0 103.131429l310.125714 310.125714c28.525714 28.525714 74.605714 28.525714 103.131428 0l484.937143-484.937143c20.48-19.748571 27.794286-48.274286 19.017143-74.605714z m-231.862857-125.074286a55.149714 55.149714 0 0 1 0-77.531429c21.211429-21.211429 56.32-21.211429 77.531429 0 21.211429 21.211429 21.211429 56.32 0 77.531429-21.211429 21.211429-55.588571 21.211429-77.531429 0z" p-id="2240"></path></svg>