<?xml version="1.0" standalone="no"?><!DOCTYPE svg PUBLIC "-//W3C//DTD SVG 1.1//EN" "http://www.w3.org/Graphics/SVG/1.1/DTD/svg11.dtd"><svg t="1588537420064" class="icon" viewBox="0 0 1024 1024" version="1.1" xmlns="http://www.w3.org/2000/svg" p-id="6736" xmlns:xlink="http://www.w3.org/1999/xlink" width="200" height="200"><defs><style type="text/css"></style></defs><path d="M512 561.152c-153.088 0-277.504-124.416-277.504-277.504 0-153.088 124.416-277.504 277.504-277.504s277.504 124.416 277.504 277.504c0 153.088-124.416 277.504-277.504 277.504z m0-478.72c-111.104 0-201.216 90.112-201.216 201.216 0 111.104 90.112 201.216 201.216 201.216s201.216-90.112 201.216-201.216c0-111.104-90.112-201.216-201.216-201.216z" fill="#222222" p-id="6737"></path><path d="M969.216 1012.736c-20.992 0-38.4-11.264-38.4-32.256 0-230.912-187.904-418.816-418.816-418.816s-418.816 187.904-418.816 418.816c0 20.992-16.896 32.256-38.4 32.256s-38.4-11.264-38.4-32.256c0-272.896 222.208-495.104 495.104-495.104s495.104 222.208 495.104 495.104c0.512 20.992-16.384 32.256-37.376 32.256z" fill="#222222" p-id="6738"></path><path d="M977.92 1013.248H45.568c-15.872 0-29.184-13.312-29.184-29.184v-7.68c0-15.872 13.312-29.184 29.184-29.184h931.84c15.872 0 29.184 13.312 29.184 29.184v7.68c0.512 15.872-12.8 29.184-28.672 29.184z" fill="#222222" p-id="6739"></path></svg>